# xmcd
# Track frame offsets:
# 150
# 11015
# 26380
# 40687
# 63540
# 76500
# 97335
# 111367
# 124132
# 138417
# 164760
#
# Disc length: 2502 seconds
# Revision: 0
# Processed by: cddbd v1.4PL0 Copyright (c) Steve Scherf et al.
# Submitted via: VisiTrax 2.9.5.180 - For more info visit www.synapsa.com
#
DISCID=9009c40b
DTITLE=Dalton T Scott - Cowboy ay of life
DYEAR=1900
DGENRE=
TTITLE0=Spurrin' to win
TTITLE1=Trying to get close to you
TTITLE2=Taht's how I feel
TTITLE3=Rodeo queen
TTITLE4=Rodeos, whiskey and woman
TTITLE5=Rummage sale
TTITLE6=In the eyes of the beholder
TTITLE7=ou're rubbing off on me
TTITLE8=Tearing it up
TTITLE9=Where does the time go
TTITLE10=Cowbo way of life
EXTD=
EXTT0=
EXTT1=
EXTT2=
EXTT3=
EXTT4=
EXTT5=
EXTT6=
EXTT7=
EXTT8=
EXTT9=
EXTT10=
PLAYORDER=
